<svg width="22" height="24" viewBox="0 0 22 24" fill="none" xmlns="http://www.w3.org/2000/svg">
<path d="M18.4016 14.7347C18.3181 14.5077 18.1831 14.3075 18.0093 14.1528C17.8356 13.9981 17.6287 13.894 17.408 13.8503L16.5012 13.6688C16.4934 13.6673 16.4861 13.6639 16.4796 13.659C16.4732 13.6541 16.4677 13.6477 16.4637 13.6403L16.2821 13.3028C16.2086 13.1662 16.1084 13.0491 15.9886 12.9597C15.8688 12.8703 15.7324 12.8109 15.5891 12.7857L12.6177 12.2554C12.4895 12.2321 12.3578 12.2512 12.2396 12.3102L11.8907 12.4832C11.8793 12.4889 11.8666 12.4901 11.8545 12.4867C11.8425 12.4833 11.8319 12.4754 11.8245 12.4645L11.3859 11.8364C11.2979 11.7111 11.1746 11.6208 11.0351 11.5793L10.6592 11.4685C10.6509 11.4661 10.6432 11.4616 10.6368 11.4553C10.6304 11.4491 10.6255 11.4412 10.6224 11.4325C10.6193 11.4238 10.6181 11.4143 10.619 11.405C10.6198 11.3957 10.6227 11.3867 10.6274 11.3789L11.0096 10.7299C11.0136 10.723 11.0189 10.7171 11.0251 10.7125C11.0313 10.708 11.0383 10.7049 11.0457 10.7035C11.053 10.702 11.0605 10.7022 11.0678 10.704C11.075 10.7058 11.0818 10.7092 11.0878 10.714L11.8167 11.2952C11.9414 11.3947 12.0941 11.4431 12.2482 11.4319L12.4333 11.4182C12.5972 11.4054 12.7509 11.3263 12.8642 11.1963C12.9775 11.0664 13.0423 10.895 13.0458 10.7157L13.0577 9.92405C13.0593 9.79854 13.0966 9.67666 13.1644 9.5753L13.8406 8.56093C13.8456 8.55337 13.8522 8.5472 13.8598 8.54291C13.8674 8.53861 13.8758 8.53631 13.8844 8.53618L14.4724 8.5328C14.6698 8.53171 14.865 8.48813 15.047 8.40455L15.6977 8.10586C15.9276 7.99947 16.1122 7.80238 16.2147 7.55396C16.3172 7.30554 16.33 7.02408 16.2506 6.7658L15.9225 5.71074C15.8269 5.40501 15.6411 5.14249 15.3942 4.9643L14.4272 4.26867C14.3142 4.18765 14.1871 4.1327 14.0539 4.10723C13.9207 4.08176 13.7841 4.08629 13.6525 4.12055L13.4234 4.1813C13.2658 4.22203 13.1275 4.32509 13.0355 4.47055C12.9434 4.616 12.9041 4.79352 12.925 4.9688L12.969 5.33986C12.9705 5.35174 12.9686 5.36382 12.9636 5.3745C12.9586 5.38518 12.9508 5.39396 12.9412 5.39967L12.8368 5.46249C12.8289 5.46716 12.82 5.46961 12.811 5.46961C12.802 5.46961 12.7932 5.46716 12.7853 5.46249L12.0816 5.06874C12.0161 5.03187 11.9616 4.97542 11.9244 4.90599C11.8873 4.83656 11.869 4.75702 11.8717 4.67667L11.8747 4.59492C11.8768 4.53109 11.8923 4.46864 11.9199 4.4123C11.9475 4.35597 11.9866 4.30723 12.034 4.2698L13.1795 3.36342C13.306 3.26383 13.4074 3.13093 13.4741 2.97711C13.5409 2.82329 13.5709 2.65354 13.5613 2.48367C13.5466 2.25229 13.4505 2.03604 13.2932 1.88003C13.1359 1.72401 12.9294 1.64028 12.7169 1.6463L11.0366 1.71417C10.8249 1.72237 10.6218 1.80794 10.46 1.95714C10.2981 2.10634 10.1869 2.31053 10.1442 2.53692C10.1428 2.5451 10.1397 2.55283 10.1353 2.5596C10.1308 2.56636 10.1251 2.57199 10.1185 2.57611C10.1119 2.58037 10.1046 2.58307 10.097 2.58404C10.0894 2.58501 10.0817 2.58422 10.0745 2.58174L9.69255 2.45049C9.45691 2.37001 9.20889 2.34183 8.96311 2.36761L7.70584 2.49886C7.46774 2.52395 7.24023 2.61856 7.04724 2.77275C6.85425 2.92693 6.7029 3.13499 6.60911 3.37505L6.52437 3.59049C6.51915 3.60291 6.51029 3.61309 6.49917 3.6194C6.48806 3.62572 6.47534 3.62781 6.46301 3.62536L5.65898 3.4448C5.36803 3.37849 5.06484 3.43712 4.8125 3.60849L3.43922 4.53867C3.29627 4.63516 3.17838 4.77002 3.09684 4.93038C3.01529 5.09074 2.9728 5.27123 2.97344 5.45461V5.91811C2.9734 5.92824 2.97102 5.93819 2.96652 5.94704C2.96201 5.95589 2.95552 5.96336 2.94765 5.96874L2.453 6.30305C2.28514 6.41736 2.16088 6.59408 2.10319 6.80057C2.0455 7.00706 2.05828 7.22935 2.13915 7.42636L2.17078 7.50286C2.25026 7.69733 2.39129 7.85405 2.56805 7.94434C2.74481 8.03462 2.94547 8.05242 3.13328 7.99449L4.39536 7.61049C4.49829 7.57901 4.59267 7.52071 4.67036 7.44061L5.41561 6.66999C5.4231 6.66224 5.43246 6.65696 5.44258 6.65477C5.45271 6.65258 5.4632 6.65357 5.47284 6.65761L5.79098 6.7913C5.95422 6.85899 6.13536 6.85354 6.29492 6.77611L6.66428 6.59517C6.67092 6.59189 6.67811 6.59009 6.6854 6.5899C6.6927 6.5897 6.69995 6.59112 6.70673 6.59405C6.7135 6.59689 6.71967 6.60119 6.72487 6.6067C6.73007 6.61221 6.73419 6.61881 6.73698 6.62611L6.90164 7.05117C6.9314 7.1281 6.93954 7.21294 6.92501 7.29492L6.64194 8.89693C6.61876 9.02688 6.62254 9.16084 6.653 9.289C6.68345 9.41715 6.73981 9.53625 6.81794 9.63755L7.25416 10.2049C7.41248 10.4112 7.51875 10.659 7.5625 10.9238L7.74159 12.0001C7.76622 12.1511 7.8349 12.2895 7.9374 12.3945C8.0399 12.4996 8.17076 12.5658 8.3105 12.5832L8.44439 12.6004C8.56553 12.6162 8.67866 12.6746 8.76665 12.7667L9.81715 13.8713C9.96345 14.0259 10.1502 14.127 10.3515 14.1606L11.5328 14.3601C11.5421 14.3614 11.551 14.3654 11.5584 14.3717C11.5658 14.3781 11.5714 14.3865 11.5747 14.3961C11.5787 14.4056 11.5801 14.416 11.5789 14.4263C11.5778 14.4366 11.574 14.4463 11.568 14.4544L11.2661 14.8964C11.2068 14.9835 11.1663 15.0842 11.1476 15.1907L11.0918 15.5117C11.0434 15.7881 11.0964 16.0741 11.2392 16.3082L11.9611 17.4955C12.0545 17.6503 12.1997 17.7592 12.3657 17.7989L12.5424 17.8416C12.5502 17.8435 12.5576 17.8472 12.5639 17.8525C12.5703 17.8579 12.5755 17.8646 12.5792 17.8724C12.5829 17.8801 12.5851 17.8887 12.5854 17.8974C12.5857 17.9062 12.5842 17.9149 12.5811 17.923L12.4118 18.3661C12.3698 18.4753 12.3534 18.5941 12.3641 18.712C12.3747 18.8298 12.4121 18.9429 12.4728 19.0411L12.6254 19.2891C12.632 19.2997 12.6353 19.3122 12.6347 19.325C12.6342 19.3377 12.6299 19.3499 12.6225 19.3598L12.3282 19.7536C12.2203 19.8996 12.1689 20.086 12.1852 20.2728C12.2014 20.4597 12.284 20.6322 12.4152 20.7535C12.4213 20.7591 12.4262 20.766 12.4296 20.7739C12.4329 20.7818 12.4346 20.7904 12.4346 20.7991V22.0754C12.4346 22.249 12.481 22.4188 12.5683 22.5639C12.6555 22.7091 12.7797 22.8233 12.9257 22.8925L13.0601 22.9561C13.1418 22.9949 13.23 23.0148 13.3191 23.0147C13.4311 23.015 13.5413 22.9841 13.6393 22.925C13.7373 22.866 13.8199 22.7807 13.8794 22.6772L14.3313 21.8822C14.4707 21.6367 14.5291 21.3466 14.4968 21.0599L14.4026 20.2281C14.4015 20.2173 14.4031 20.2063 14.4073 20.1964C14.4114 20.1865 14.4179 20.178 14.4262 20.1719L15.2969 19.5246C15.4655 19.4002 15.5945 19.2217 15.6661 19.0139L15.8682 18.4313C15.9417 18.2184 16.0705 18.0335 16.2389 17.8994L16.9881 17.3016C17.1352 17.1839 17.2549 17.0301 17.3374 16.8526C17.42 16.6751 17.4631 16.4789 17.4634 16.2799V16.173C17.4634 16.1614 17.4666 16.15 17.4725 16.1402C17.4784 16.1305 17.4868 16.1229 17.4967 16.1183L18.1136 15.8318C18.2711 15.7574 18.3958 15.6191 18.4613 15.446C18.5268 15.273 18.528 15.0789 18.4645 14.905L18.4016 14.7347ZM17.8776 15.2277L17.2609 15.5142C17.1425 15.5691 17.0415 15.6608 16.9705 15.7779C16.8995 15.895 16.8617 16.0323 16.8618 16.1727V16.2796C16.8617 16.3754 16.8409 16.4698 16.8012 16.5553C16.7614 16.6408 16.7038 16.7148 16.633 16.7716L15.8838 17.3693C15.621 17.5785 15.42 17.8669 15.3053 18.199L15.1035 18.7821C15.0754 18.8633 15.025 18.9331 14.9591 18.9818L14.087 19.6283C13.9869 19.702 13.9075 19.8046 13.8576 19.9246C13.8077 20.0447 13.7893 20.1774 13.8045 20.3082L13.8987 21.1403C13.9142 21.2782 13.886 21.4178 13.8189 21.5359L13.3669 22.3313C13.36 22.3436 13.3491 22.3527 13.3365 22.357C13.3238 22.3612 13.3102 22.3603 13.2981 22.3544L13.1639 22.2908C13.1255 22.2725 13.0928 22.2425 13.0698 22.2042C13.0469 22.166 13.0346 22.1213 13.0347 22.0756V20.7992C13.0348 20.6948 13.0139 20.5915 12.9734 20.4968C12.933 20.4021 12.874 20.3183 12.8006 20.2512C12.7896 20.241 12.7827 20.2266 12.7814 20.2111C12.78 20.1955 12.7843 20.1799 12.7933 20.1677L13.0876 19.774C13.1767 19.6553 13.2284 19.5083 13.2348 19.355C13.2412 19.2017 13.202 19.0502 13.1232 18.9231L12.9709 18.6751C12.9658 18.6669 12.9627 18.6575 12.9618 18.6476C12.9609 18.6378 12.9623 18.6279 12.9657 18.6188L13.135 18.1756C13.1721 18.0789 13.1893 17.9746 13.1853 17.87C13.1814 17.7654 13.1565 17.6629 13.1123 17.57C13.0681 17.477 13.0058 17.3957 12.9297 17.3319C12.8536 17.268 12.7655 17.2232 12.6718 17.2006L12.4953 17.1582C12.4817 17.1548 12.4698 17.1458 12.4621 17.1331L11.7403 15.9458C11.6844 15.8541 11.6637 15.7422 11.6825 15.634L11.7384 15.3128C11.7399 15.3039 11.7433 15.2956 11.7483 15.2884L12.05 14.8467C12.1176 14.7477 12.1607 14.6314 12.1749 14.509C12.1892 14.3866 12.1742 14.2622 12.1314 14.148C12.0885 14.0337 12.0194 13.9335 11.9306 13.857C11.8418 13.7806 11.7364 13.7305 11.6246 13.7116L10.444 13.5115C10.3653 13.4985 10.2923 13.4592 10.235 13.399L9.18448 12.2942C9.0014 12.1027 8.76609 11.9813 8.51417 11.9487L8.38062 11.9314C8.36897 11.93 8.35805 11.9245 8.3495 11.9157C8.34095 11.907 8.33523 11.8955 8.33319 11.8829L8.15426 10.807C8.0915 10.4302 7.93999 10.0777 7.71461 9.78417L7.2789 9.21642C7.25834 9.18979 7.2435 9.15846 7.2355 9.12475C7.2275 9.09103 7.22653 9.05579 7.23267 9.02161L7.51661 7.42036C7.5541 7.21032 7.53327 6.99285 7.4568 6.7958L7.29214 6.37074C7.25824 6.28281 7.20857 6.20317 7.14603 6.1365C7.0835 6.06983 7.00937 6.01748 6.92801 5.98254C6.84665 5.9476 6.7597 5.93076 6.67229 5.93303C6.58487 5.9353 6.49876 5.95662 6.41901 5.99574L6.04965 6.17667C6.0431 6.17993 6.03602 6.18173 6.02882 6.18199C6.02163 6.18225 6.01445 6.18095 6.00772 6.17817L5.68975 6.04467C5.57397 5.99632 5.44804 5.98459 5.32642 6.01083C5.20481 6.03707 5.09244 6.1002 5.00225 6.19299L4.257 6.96342C4.2505 6.97016 4.2426 6.97505 4.23397 6.97767L2.97155 7.36186C2.92205 7.37714 2.86916 7.37245 2.82257 7.34866C2.77598 7.32486 2.73881 7.28355 2.71786 7.2323L2.6864 7.15599C2.66505 7.10415 2.66164 7.04563 2.67681 6.99126C2.69198 6.93689 2.7247 6.89036 2.7689 6.8603L3.26356 6.52599C3.3585 6.46188 3.43679 6.37229 3.49096 6.26577C3.54512 6.15925 3.57334 6.03936 3.57294 5.91755V5.45461C3.57276 5.3828 3.58946 5.31214 3.62144 5.24938C3.65343 5.18661 3.69963 5.13384 3.75564 5.09611L5.12892 4.16592C5.25032 4.08338 5.39618 4.05497 5.53626 4.08661L6.34012 4.26717C6.4882 4.29994 6.6421 4.27618 6.77603 4.19989C6.90995 4.12359 7.01577 3.9994 7.07575 3.84811L7.16031 3.63267C7.21194 3.50124 7.29503 3.38738 7.40087 3.30303C7.50671 3.21868 7.6314 3.16694 7.76187 3.15324L9.01914 3.02199C9.18491 3.00444 9.35222 3.02357 9.51105 3.07824L9.89295 3.20949C9.98039 3.23942 10.0726 3.24903 10.1637 3.23771C10.2547 3.22638 10.3426 3.19438 10.4216 3.14375C10.5006 3.09313 10.569 3.025 10.6224 2.94377C10.6759 2.86253 10.7131 2.76999 10.7317 2.67211C10.7474 2.58939 10.7881 2.51483 10.8474 2.46042C10.9066 2.406 10.9809 2.3749 11.0583 2.37211L12.7385 2.30424C12.7664 2.30249 12.7944 2.30684 12.8207 2.31702C12.8471 2.3272 12.8713 2.343 12.892 2.36352C12.9127 2.38403 12.9294 2.40883 12.9412 2.43648C12.953 2.46413 12.9597 2.49407 12.9607 2.52455C12.9642 2.58444 12.9536 2.64429 12.9301 2.69852C12.9065 2.75275 12.8708 2.79959 12.8262 2.83467L11.6808 3.74105C11.5594 3.83654 11.4597 3.96101 11.3891 4.10496C11.3185 4.24891 11.279 4.40854 11.2736 4.57167L11.2707 4.65361C11.2637 4.85885 11.3105 5.06201 11.4055 5.23932C11.5005 5.41664 11.6398 5.56077 11.8071 5.65486L12.5104 6.04861C12.6062 6.10246 12.7127 6.12963 12.8204 6.1277C12.9281 6.12577 13.0337 6.0948 13.1278 6.03755L13.232 5.97492C13.3476 5.90587 13.4413 5.80026 13.5009 5.67199C13.5605 5.54372 13.5831 5.39878 13.5657 5.25624L13.5216 4.88536C13.5198 4.87072 13.5231 4.85588 13.5308 4.84373C13.5384 4.83157 13.55 4.82295 13.5632 4.81955L13.793 4.75936C13.8444 4.74589 13.8979 4.7441 13.95 4.7541C14.0021 4.7641 14.0518 4.78568 14.096 4.81749L15.0631 5.51255C15.1985 5.61035 15.3004 5.75436 15.3527 5.92205L15.6812 6.97842C15.7124 7.07958 15.7075 7.18987 15.6674 7.28722C15.6272 7.38456 15.5549 7.46179 15.4648 7.50343L14.8142 7.80005C14.7051 7.85027 14.5879 7.87646 14.4695 7.87711L13.8815 7.88049C13.7786 7.88149 13.6774 7.90873 13.5859 7.96004C13.4945 8.01136 13.4153 8.08531 13.3547 8.17599L12.6784 9.19074C12.5376 9.40122 12.4601 9.65415 12.4566 9.91467L12.4446 10.7063C12.4443 10.7213 12.4389 10.7357 12.4293 10.7465C12.4197 10.7573 12.4068 10.7638 12.393 10.7646L12.2079 10.7781C12.1952 10.7783 12.1826 10.7744 12.1718 10.7669L11.4434 10.1847C11.3712 10.127 11.2889 10.0861 11.2016 10.0644C11.1144 10.0428 11.0239 10.0408 10.9359 10.0587C10.8479 10.0765 10.7642 10.1138 10.6899 10.1683C10.6157 10.2228 10.5524 10.2932 10.504 10.3754L10.1217 11.0251C10.0659 11.1197 10.0314 11.2274 10.0209 11.3394C10.0105 11.4514 10.0243 11.5645 10.0614 11.6695C10.0985 11.7745 10.1578 11.8686 10.2345 11.9439C10.3111 12.0192 10.403 12.0738 10.5026 12.1032L10.8783 12.214C10.8901 12.2172 10.9004 12.2248 10.9077 12.2354L11.3463 12.8635C11.4361 12.993 11.5636 13.0852 11.7079 13.1248C11.8523 13.1644 12.0046 13.1491 12.1399 13.0814L12.4888 12.9085C12.4986 12.9035 12.5096 12.9018 12.5202 12.9038L15.4937 13.4342C15.5497 13.4441 15.603 13.4673 15.6498 13.5022C15.6967 13.5372 15.7358 13.583 15.7645 13.6364L15.946 13.9739C15.9938 14.0623 16.0584 14.1385 16.1355 14.1973C16.2126 14.2561 16.3004 14.2962 16.3929 14.3147L17.2999 14.497C17.4209 14.521 17.5344 14.578 17.6297 14.6629C17.7251 14.7477 17.7991 14.8575 17.8449 14.9821L17.9078 15.1519C17.9126 15.1664 17.9122 15.1823 17.9066 15.1964C17.9009 15.2105 17.8906 15.2217 17.8776 15.2277Z" fill="black"/>
<path d="M19.788 4.21635C19.8638 4.06645 19.9112 3.90138 19.9271 3.73103C19.9431 3.56068 19.9273 3.38857 19.8808 3.22504L19.719 2.66085C19.6679 2.48442 19.5725 2.32709 19.4438 2.20658C19.3151 2.08606 19.1581 2.00715 18.9905 1.97873L18.1672 1.84241C18.1436 1.83866 18.1205 1.8318 18.0984 1.82198L16.368 1.05679C16.2159 0.989303 16.0499 0.96829 15.8877 0.996007C15.7255 1.02372 15.5733 1.09912 15.4474 1.2141L15.3099 1.33954C15.2079 1.43211 15.1258 1.54808 15.0694 1.6792C15.0131 1.81032 14.984 1.95336 14.9841 2.09816V2.58754C14.9836 2.7549 15.0224 2.91961 15.0966 3.06606C15.1709 3.2125 15.2782 3.33583 15.4084 3.42435L16.0949 3.8931C16.1485 3.92964 16.1902 3.98361 16.2142 4.04741L16.6624 5.23054C16.7208 5.38438 16.7964 5.52979 16.8874 5.66348L17.7186 6.88223C17.81 7.0171 17.9292 7.12668 18.0665 7.20214C18.2038 7.27759 18.3555 7.31682 18.5092 7.31666C18.5345 7.31666 18.5597 7.31666 18.5852 7.31366L18.641 7.30898C18.7568 7.29945 18.8693 7.26311 18.9712 7.20237C19.0731 7.14164 19.1619 7.05791 19.2317 6.95676C19.3016 6.85562 19.3508 6.73939 19.3762 6.61583C19.4017 6.49227 19.4026 6.36422 19.3791 6.24023L19.2333 5.47148C19.2187 5.39383 19.2299 5.31303 19.2651 5.24366L19.788 4.21635ZM18.7395 4.92604C18.6346 5.13279 18.601 5.37372 18.6448 5.60516L18.7906 6.37391C18.7968 6.40654 18.7965 6.44024 18.7898 6.47276C18.7831 6.50527 18.7702 6.53586 18.7518 6.56248C18.7334 6.58909 18.71 6.61113 18.6832 6.62711C18.6564 6.64309 18.6268 6.65266 18.5964 6.65516L18.5405 6.65985C18.4755 6.66547 18.4102 6.65292 18.3508 6.6234C18.2915 6.59387 18.24 6.54834 18.2012 6.4911L17.37 5.27235C17.3086 5.18229 17.2576 5.0843 17.2183 4.9806L16.7702 3.79748C16.6985 3.60728 16.574 3.44641 16.4141 3.33754L15.7279 2.86879C15.6842 2.83904 15.6481 2.79758 15.6232 2.74836C15.5983 2.69914 15.5853 2.64378 15.5854 2.58754V2.09816C15.5854 2.04958 15.5951 2.00157 15.614 1.95757C15.6328 1.91356 15.6604 1.87462 15.6946 1.84354L15.8321 1.71791C15.8744 1.67923 15.9255 1.65389 15.9801 1.64463C16.0346 1.63538 16.0904 1.64257 16.1415 1.66541L17.8717 2.4306C17.9375 2.45965 18.0061 2.48017 18.0763 2.49173L18.8999 2.62804C18.9562 2.63755 19.0089 2.66403 19.0521 2.70448C19.0953 2.74493 19.1273 2.79775 19.1445 2.85698L19.3062 3.42135C19.3285 3.50009 19.3361 3.58292 19.3284 3.66491C19.3207 3.7469 19.298 3.82635 19.2615 3.89854L18.7395 4.92604Z" fill="black"/>
</svg>
